<svg width="30" height="26" viewBox="0 0 30 26" fill="none" xmlns="http://www.w3.org/2000/svg">
<g clip-path="url(#clip0_41_442)">
<path fill-rule="evenodd" clip-rule="evenodd" d="M6.77414 0H23.2258C26.9516 0 30 2.65418 30 5.89811V20.1018C30 23.3458 26.9516 26 23.2258 26H6.77414C3.0484 26 0 23.3458 0 20.1018V5.89811C0 2.65418 3.0484 0 6.77414 0Z" fill="white"/>
<path d="M28.4219 4.81467C28.1455 4.69504 28.0266 4.923 27.8651 5.03872C27.8098 5.07606 27.7629 5.12455 27.7163 5.16933C27.3124 5.55034 26.8405 5.80063 26.2241 5.77074C25.3229 5.72596 24.5533 5.97619 23.8731 6.58498C23.7286 5.83424 23.2482 5.38582 22.5171 5.09838C22.1344 4.94899 21.7476 4.79948 21.4797 4.47452C21.2927 4.24303 21.2417 3.98523 21.1481 3.73123C21.0887 3.57817 21.029 3.42122 20.8292 3.39499C20.6124 3.3651 20.5273 3.52565 20.4424 3.66028C20.1022 4.20941 19.9705 4.81448 19.9833 5.427C20.0132 6.80544 20.672 7.90346 21.9815 8.68427C22.1302 8.77394 22.1684 8.86355 22.1218 8.99428C22.0325 9.26329 21.9262 9.52468 21.8327 9.7937C21.7732 9.96554 21.6837 10.0029 21.4755 9.9282C20.7571 9.66309 20.1363 9.27073 19.5879 8.79645C18.6568 8.00075 17.8151 7.12295 16.765 6.43559C16.522 6.27684 16.2724 6.12609 16.0168 5.98363C14.9455 5.06477 16.1571 4.31013 16.4377 4.22058C16.731 4.12712 16.5397 3.80595 15.5916 3.80967C14.6435 3.81339 13.7762 4.09351 12.671 4.46708C12.5094 4.5232 12.3394 4.56426 12.165 4.59775C11.1617 4.42963 10.1202 4.3923 9.03182 4.50057C6.98263 4.70218 5.34603 5.55766 4.14294 7.01821C2.69757 8.77412 2.35736 10.7687 2.77402 12.8493C3.21189 15.0419 4.47872 16.8573 6.42584 18.2768C8.44519 19.7483 10.7707 20.4694 13.4234 20.3311C15.0346 20.249 16.8287 20.0586 18.8523 18.5456C19.3624 18.7697 19.898 18.8594 20.7866 18.9267C21.4711 18.9828 22.13 18.8968 22.6402 18.8035C23.4395 18.6541 23.3842 18.0004 23.0951 17.8809C20.7528 16.9173 21.2669 17.3095 20.7994 16.9919C21.9897 15.7481 23.7838 14.4557 24.4852 10.2683C24.5405 9.93595 24.4936 9.72678 24.4852 9.45776C24.481 9.29355 24.5234 9.22999 24.7361 9.21126C25.3227 9.15142 25.8923 9.00965 26.4153 8.75552C27.933 8.02338 28.5452 6.82063 28.6898 5.3788C28.711 5.15847 28.6856 4.93057 28.4219 4.81485V4.81467ZM15.1963 17.791C12.926 16.2149 11.825 15.6955 11.3702 15.7179C10.9451 15.7404 11.0215 16.17 11.1151 16.4501C11.2128 16.7265 11.3405 16.917 11.5189 17.1598C11.6422 17.3204 11.7273 17.5594 11.3957 17.7388C10.6646 18.1384 9.39337 17.6043 9.33377 17.5781C7.85435 16.8086 6.61721 15.7927 5.74563 14.4032C4.90395 13.0658 4.41498 11.6316 4.33431 10.1C4.31304 9.73032 4.43639 9.59941 4.85291 9.53231C5.40128 9.44257 5.9667 9.42385 6.51514 9.49479C8.83202 9.7937 10.8045 10.7088 12.4583 12.1581C13.4022 12.9835 14.1164 13.9698 14.852 14.9334C15.6342 15.9569 16.4759 16.9319 17.5472 17.7312C17.9256 18.0113 18.2274 18.2243 18.5165 18.3812C17.645 18.4671 16.191 18.4858 15.1963 17.791ZM16.2944 11.5372C16.3303 11.4085 16.4616 11.3141 16.6205 11.3141C16.6597 11.3142 16.6985 11.3205 16.7352 11.3327C16.782 11.3477 16.8245 11.3701 16.8585 11.4036C16.918 11.456 16.952 11.5307 16.952 11.6091C16.952 11.7735 16.8033 11.9042 16.6163 11.9042C16.5373 11.9048 16.4608 11.8803 16.4006 11.8351C16.3405 11.7899 16.3009 11.727 16.289 11.6581C16.2817 11.6179 16.2835 11.5768 16.2944 11.5372ZM19.5547 13.1791C19.3747 13.2398 19.1956 13.2875 19.0224 13.2938C18.6993 13.3086 18.3465 13.1929 18.1553 13.0509C17.8577 12.8306 17.6452 12.7074 17.5559 12.3225C17.5176 12.1581 17.5388 11.9042 17.5729 11.7585C17.6494 11.4447 17.5643 11.243 17.3136 11.06C17.1096 10.9106 16.8501 10.8695 16.5654 10.8695C16.4591 10.8695 16.3613 10.8285 16.289 10.7948C16.17 10.7426 16.0722 10.6118 16.1658 10.4512C16.1956 10.3989 16.3401 10.2719 16.3742 10.2496C16.7609 10.0553 17.2074 10.1188 17.6197 10.2644C18.0023 10.4027 18.2915 10.6566 18.7081 11.0152C19.1331 11.4484 19.2097 11.568 19.4521 11.893C19.6435 12.1469 19.8177 12.4085 19.9368 12.7072C19.9973 12.8635 19.9417 12.9964 19.7751 13.0901C19.7073 13.1283 19.6294 13.1538 19.5547 13.1791Z" fill="#5876F1"/>
</g>
<defs>
<clipPath id="clip0_41_442">
<rect width="30" height="26" fill="white"/>
</clipPath>
</defs>
</svg>
