<svg width="14" height="14" viewBox="0 0 14 14" fill="none" xmlns="http://www.w3.org/2000/svg">
<path d="M3.19145 0.924219C3.3145 0.757422 3.51138 0.65625 3.71919 0.65625H10.2817C10.4895 0.65625 10.6864 0.754687 10.8094 0.924219L13.8719 5.08047C14.0579 5.33203 14.0387 5.6793 13.8309 5.91172L7.48716 12.9117C7.36411 13.0484 7.18637 13.1277 7.00044 13.1277C6.8145 13.1277 6.6395 13.0484 6.51372 12.9117L0.169969 5.91172C-0.0405782 5.6793 -0.0569844 5.33203 0.128953 5.08047L3.19145 0.924219ZM4.24419 2.0125C4.15395 2.08086 4.12934 2.20391 4.18677 2.29961L5.7563 4.91367L1.7313 5.25C1.61919 5.2582 1.53169 5.35391 1.53169 5.46875C1.53169 5.58359 1.61919 5.67656 1.7313 5.6875L6.9813 6.125C6.99223 6.125 7.00591 6.125 7.01684 6.125L12.2668 5.6875C12.379 5.6793 12.4665 5.58359 12.4665 5.46875C12.4665 5.35391 12.379 5.26094 12.2668 5.25L8.24458 4.91641L9.81411 2.30234C9.87153 2.20664 9.84692 2.08086 9.75669 2.01523C9.66645 1.94961 9.54067 1.96055 9.46411 2.04258L7.00044 4.70859L4.53677 2.03984C4.4602 1.95781 4.33442 1.94687 4.24419 2.0125Z" fill="white"/>
</svg>
