<svg width="18" height="17" viewBox="0 0 18 17" fill="none" xmlns="http://www.w3.org/2000/svg">
<g clip-path="url(#clip0_100_1015)">
<g clip-path="url(#clip1_100_1015)">
<path d="M9.90316 0.76709C9.73753 0.42334 9.38753 0.20459 9.00316 0.20459C8.61878 0.20459 8.2719 0.42334 8.10316 0.76709L6.09378 4.90146L1.60628 5.56396C1.23128 5.62021 0.918781 5.88271 0.803156 6.24209C0.687531 6.60146 0.78128 6.99834 1.05003 7.26396L4.30628 10.4858L3.53753 15.039C3.47503 15.414 3.63128 15.7952 3.94066 16.0171C4.25003 16.239 4.65941 16.2671 4.99691 16.089L9.00628 13.9483L13.0157 16.089C13.3532 16.2671 13.7625 16.2421 14.0719 16.0171C14.3813 15.7921 14.5375 15.414 14.475 15.039L13.7032 10.4858L16.9594 7.26396C17.2282 6.99834 17.325 6.60146 17.2063 6.24209C17.0875 5.88271 16.7782 5.62021 16.4032 5.56396L11.9125 4.90146L9.90316 0.76709Z" fill="#FBBF24"/>
</g>
</g>
<defs>
<clipPath id="clip0_100_1015">
<rect width="18" height="16" fill="white" transform="translate(0 0.20459)"/>
</clipPath>
<clipPath id="clip1_100_1015">
<path d="M0 0.20459H18V16.2046H0V0.20459Z" fill="white"/>
</clipPath>
</defs>
</svg>
